<?xml version="1.0" standalone="no"?>
<!DOCTYPE svg PUBLIC "-//W3C//DTD SVG 20010904//EN"
 "http://www.w3.org/TR/2001/REC-SVG-20010904/DTD/svg10.dtd">
<svg version="1.0" xmlns="http://www.w3.org/2000/svg"
 width="183.000000pt" height="183.000000pt" viewBox="0 0 183.000000 183.000000"
 preserveAspectRatio="xMidYMid meet">
<metadata>
Created by potrace 1.11, written by Peter Selinger 2001-2013
</metadata>
<g transform="translate(0.000000,183.000000) scale(0.100000,-0.100000)"
fill="#000000" stroke="none">
<path d="M729 1502 c-79 -41 -114 -102 -114 -196 0 -47 6 -82 17 -102 17 -31
17 -31 -16 -63 -74 -71 -98 -187 -57 -276 16 -36 51 -77 51 -61 0 4 15 -5 34
-19 64 -49 191 -49 263 -1 48 33 54 32 75 -4 26 -46 63 -41 121 18 26 26 47
57 47 68 0 11 -16 38 -36 59 l-35 39 38 73 c45 86 43 93 -39 130 -65 29 -81
26 -106 -17 -9 -16 -25 -30 -36 -30 -15 0 -13 5 13 35 61 70 81 143 60 216 -7
24 -14 49 -14 54 -4 47 -99 105 -171 105 -26 0 -61 -10 -95 -28z m-46 -117
c-3 -9 -8 -14 -10 -11 -3 3 -2 9 2 15 9 16 15 13 8 -4z m-16 -47 c-3 -8 -6 -5
-6 6 -1 11 2 17 5 13 3 -3 4 -12 1 -19z m173 -6 c0 -21 -27 -62 -41 -62 -13 0
-11 54 3 68 18 18 38 15 38 -6z m-45 -341 c31 -45 27 -61 -15 -61 -29 0 -60
22 -60 43 0 16 29 57 39 57 5 0 21 -18 36 -39z"/>
<path d="M326 1504 c-14 -13 -16 -51 -16 -257 0 -269 -4 -287 -60 -287 -21 0
-37 9 -57 35 -34 42 -50 43 -111 8 -65 -37 -82 -53 -82 -78 0 -26 54 -103 78
-112 9 -4 31 -17 48 -29 45 -35 121 -48 189 -34 75 16 132 61 170 135 l30 58
5 279 c3 170 1 283 -4 289 -6 5 -47 9 -92 9 -62 0 -87 -4 -98 -16z m107 -41
c-13 -2 -35 -2 -50 0 -16 2 -5 4 22 4 28 0 40 -2 28 -4z m54 1 c-3 -3 -12 -4
-19 -1 -8 3 -5 6 6 6 11 1 17 -2 13 -5z"/>
<path d="M1187 1508 c-16 -12 -17 -39 -15 -378 l3 -365 187 -3 c211 -3 259 7
334 72 113 96 153 311 88 465 -9 20 -17 44 -19 53 -10 46 -79 109 -160 145
-53 23 -389 32 -418 11z m371 -224 c13 -9 21 -18 18 -21 -3 -3 1 -18 9 -34 20
-37 20 -161 1 -198 -24 -45 -43 -54 -127 -60 l-79 -6 0 167 c0 123 3 168 13
172 22 10 141 -5 165 -20z"/>
<path d="M10 520 l0 -200 900 0 900 0 0 200 0 200 -900 0 -900 0 0 -200z m351
134 c35 -18 68 -82 69 -132 0 -18 -7 -49 -15 -68 -11 -26 -12 -41 -5 -55 8
-15 7 -19 -4 -19 -8 0 -18 5 -21 10 -4 7 -12 7 -25 0 -71 -38 -160 34 -160
129 0 49 30 111 64 132 38 23 58 24 97 3z m705 -183 c8 -8 16 8 49 100 37 105
36 105 55 -41 6 -47 13 -100 17 -117 4 -26 2 -33 -10 -33 -12 0 -17 18 -23 80
-3 44 -10 83 -14 85 -4 3 -21 -31 -36 -75 -16 -44 -31 -80 -35 -80 -3 0 -16
34 -29 76 -13 41 -27 77 -31 80 -8 5 -15 -26 -25 -108 -4 -42 -10 -58 -21 -58
-11 0 -14 7 -10 23 3 12 14 77 23 145 l17 124 35 -99 c19 -54 36 -100 38 -102z
m515 -1 c5 0 9 43 9 95 0 57 4 95 10 95 6 0 10 -53 10 -140 0 -77 -1 -140 -3
-140 -2 0 -36 45 -77 100 -41 55 -78 100 -82 100 -4 0 -8 -45 -8 -100 0 -60
-4 -100 -10 -100 -6 0 -10 56 -10 147 l0 147 76 -102 c42 -56 80 -102 85 -102z
m-1421 175 c0 -11 -12 -15 -45 -15 l-45 0 0 -40 0 -40 43 0 c32 0 44 -4 44
-15 0 -11 -12 -15 -44 -15 l-43 0 0 -55 0 -55 45 0 c33 0 45 -4 45 -15 0 -12
-13 -15 -60 -15 l-60 0 0 140 0 140 60 0 c47 0 60 -3 60 -15z m350 -92 c0
-116 11 -143 57 -143 36 0 53 51 53 160 0 53 4 90 10 90 17 0 13 -206 -5 -240
-28 -55 -102 -53 -129 4 -22 47 -23 236 -1 236 12 0 15 -19 15 -107z m220 -33
c0 -118 -2 -140 -15 -140 -13 0 -15 22 -15 140 0 118 2 140 15 140 13 0 15
-22 15 -140z m164 118 c38 -53 7 -138 -49 -138 -24 0 -25 -3 -25 -60 0 -47 -3
-60 -15 -60 -13 0 -15 22 -15 140 l0 140 44 0 c35 0 48 -5 60 -22z m473 7 c0
-11 -12 -15 -49 -15 l-49 0 3 -37 c3 -37 4 -38 46 -41 28 -2 42 -8 42 -18 0
-10 -13 -14 -46 -14 l-45 0 3 -52 3 -53 48 -3 c33 -2 47 -7 47 -18 0 -11 -14
-14 -60 -14 l-60 0 0 140 0 140 58 0 c46 0 59 -3 59 -15z m413 0 c0 -9 -9 -15
-25 -15 l-25 0 0 -125 c0 -104 -2 -125 -15 -125 -13 0 -15 21 -15 125 l0 125
-25 0 c-16 0 -25 6 -25 15 0 12 14 15 65 15 51 0 65 -3 65 -15z"/>
<path d="M283 630 c-30 -12 -53 -61 -53 -114 0 -74 55 -123 114 -100 14 6 13
11 -9 40 -29 38 -14 46 22 12 20 -19 25 -20 33 -8 15 23 12 97 -4 129 -8 15
-26 32 -41 39 -30 14 -32 14 -62 2z"/>
<path d="M820 580 c0 -43 3 -50 19 -50 23 0 51 25 51 46 0 29 -21 54 -45 54
-23 0 -25 -4 -25 -50z"/>
</g>
</svg>
